<svg width="185" height="249" viewBox="0 0 185 249" fill="none" xmlns="http://www.w3.org/2000/svg">
<path d="M143.411 64.6666L78.0408 63.8329M143.411 64.6666L113.984 77.3675M143.411 64.6666L156.176 89.1137M143.411 64.6666L159.694 57.4021M78.0408 63.8329L113.984 77.3675M78.0408 63.8329L57.3179 28.6987M78.0408 63.8329L40.9516 91.3804M78.0408 63.8329L21.3864 63.1104M113.984 77.3675L108.625 155.756M156.176 89.1137L142.53 133.772L127.445 144.788M156.176 89.1137L155.461 145.146M156.176 89.1137L159.694 57.4021M156.176 89.1137L164.892 89.2249M127.445 144.788L155.461 145.146M127.445 144.788L108.625 155.756M155.461 145.146L178.552 141.081M155.461 145.146L184.028 151.114M155.461 145.146L149.093 156.273L180.19 159.16M159.694 57.4021L95.0568 47.8603M159.694 57.4021L172.145 57.5609M95.0568 47.8603L57.3179 28.6987M95.0568 47.8603L106.236 1.30209M95.0568 47.8603L150.934 11.835M57.3179 28.6987L21.3864 63.1104M57.3179 28.6987L106.236 1.30209M40.9516 91.3804L21.3864 63.1104M40.9516 91.3804L37.664 105.037M108.625 155.756L49.7265 135.702M108.625 155.756L131.319 182.821M49.7265 135.702L37.664 105.037M49.7265 135.702L49.2864 143.13M37.664 105.037L22.3913 148.492M178.552 141.081L184.028 151.114M178.552 141.081L164.892 89.2249M184.028 151.114L180.19 159.16M164.892 89.2249L172.145 57.5609M172.145 57.5609L165.694 26.3447L150.934 11.835M150.934 11.835L106.236 1.30209M180.19 159.16L183.742 173.527M183.742 173.527L170.613 177.718M183.742 173.527L175.074 169.68L138.965 169.22L131.319 182.821M170.613 177.718L141.974 177.353L131.319 182.821M170.613 177.718L179.824 187.798L179.705 197.137L171.584 199.213M131.319 182.821L138.671 192.255M131.319 182.821L49.2864 143.13M138.671 192.255L67.9364 171.634M138.671 192.255L153.857 197.788M138.671 192.255L133.731 207.056M49.2864 143.13L46.1937 146.648M67.9364 171.634L46.1937 146.648M67.9364 171.634L133.731 207.056M67.9364 171.634L56.824 197.183M46.1937 146.648L28.0715 171.506M1.48578 207.974L45.7117 222.733M1.48578 207.974L22.3913 148.492M1.48578 207.974L28.0715 171.506M120.204 247.591L139.957 247.048L146.907 222.418M120.204 247.591L133.731 207.056M120.204 247.591L45.7117 222.733M153.857 197.788L163.463 201.289L171.584 199.213M153.857 197.788L146.907 222.418M171.584 199.213L175.92 210.55L171.923 224.716L160.247 229.832L146.907 222.418M146.907 222.418L133.731 207.056M45.7117 222.733L56.824 197.183M22.3913 148.492L28.0715 171.506M28.0715 171.506L56.824 197.183" stroke="#3CDAB4"/>
</svg>
