<svg width="261" height="339" viewBox="0 0 261 339" fill="none" xmlns="http://www.w3.org/2000/svg">
<path d="M41.1111 93.6152L128.893 79.9985M41.1111 93.6152L83.1272 105.076M41.1111 93.6152L28.6124 128.943M41.1111 93.6152L17.8185 86.9547M128.893 79.9985L83.1272 105.076M128.893 79.9985L150.055 28.7723M128.893 79.9985L184.054 109.968M128.893 79.9985L204.97 68.1973M83.1272 105.076L105.319 209.507M28.6124 128.943L55.5059 186.413L77.9046 198.349M28.6124 128.943L40.2838 204.185M28.6124 128.943L17.8185 86.9547M28.6124 128.943L16.9081 130.759M77.9046 198.349L40.2838 204.185M77.9046 198.349L105.319 209.507M40.2838 204.185L8.44341 203.131M40.2838 204.185L2.99419 217.674M40.2838 204.185L50.9783 217.936L9.69616 227.764M17.8185 86.9547L102.949 61.7635M17.8185 86.9547L1.09812 89.5484M102.949 61.7635L150.055 28.7723M102.949 61.7635L79.0102 1.26681M102.949 61.7635L20.8919 23.9802M150.055 28.7723L204.97 68.1973M150.055 28.7723L79.0102 1.26681M184.054 109.968L204.97 68.1973M184.054 109.968L191.087 127.712M105.319 209.507L180.721 171.27M105.319 209.507L79.9631 250.254M180.721 171.27L191.087 127.712M180.721 171.27L182.733 181.179M191.087 127.712L219.939 183.251M8.44341 203.131L2.99419 217.674M8.44341 203.131L16.9081 130.759M2.99419 217.674L9.69616 227.764M16.9081 130.759L1.09812 89.5484M1.09812 89.5484L3.81017 46.321L20.8919 23.9802M20.8919 23.9802L79.0102 1.26681M9.69616 227.764L7.66277 247.771M7.66277 247.771L26.1269 250.9M7.66277 247.771L18.5889 240.939L67.0779 233.418L79.9631 250.254M26.1269 250.9L64.5837 244.934L79.9631 250.254M26.1269 250.9L15.6616 266.221L17.6068 278.761L28.9289 280.002M79.9631 250.254L71.8761 264.35M79.9631 250.254L182.733 181.179M71.8761 264.35L163.092 223.089M71.8761 264.35L52.5043 274.697M71.8761 264.35L81.3503 283.318M182.733 181.179L187.566 185.32M163.092 223.089L187.566 185.32M163.092 223.089L81.3503 283.318M163.092 223.089L182.924 255.336M187.566 185.32L216.696 215.297M259.432 259.275L202.757 287.583M259.432 259.275L219.939 183.251M259.432 259.275L216.696 215.297M107.296 335.263L80.6191 338.307L66.5617 306.502M107.296 335.263L81.3503 283.318M107.296 335.263L202.757 287.583M52.5043 274.697L40.251 281.242L28.9289 280.002M52.5043 274.697L66.5617 306.502M28.9289 280.002L25.2621 296.082L33.3473 314.375L50.0326 319.026L66.5617 306.502M66.5617 306.502L81.3503 283.318M202.757 287.583L182.924 255.336M219.939 183.251L216.696 215.297M216.696 215.297L182.924 255.336" stroke="#3CDAB4"/>
</svg>
