<svg width="538" height="392" viewBox="0 0 538 392" fill="none" xmlns="http://www.w3.org/2000/svg">
<path d="M10.1194 183V71H51.2394C63.0794 71 73.3194 73.4 81.9594 78.2C90.706 83 97.4794 89.6133 102.279 98.04C107.186 106.467 109.639 116.12 109.639 127C109.639 137.88 107.186 147.533 102.279 155.96C97.4794 164.387 90.706 171 81.9594 175.8C73.3194 180.6 63.0794 183 51.2394 183H10.1194ZM36.9994 160.6H50.5994C56.786 160.6 62.2794 159.267 67.0794 156.6C71.986 153.827 75.826 149.933 78.5994 144.92C81.3727 139.907 82.7594 133.933 82.7594 127C82.7594 120.067 81.3727 114.093 78.5994 109.08C75.826 104.067 71.986 100.227 67.0794 97.56C62.2794 94.7867 56.786 93.4 50.5994 93.4H36.9994V160.6ZM166.269 183C156.989 183 148.829 181.293 141.789 177.88C134.749 174.36 129.256 169.56 125.309 163.48C121.469 157.293 119.549 150.147 119.549 142.04C119.549 133.08 121.416 125.4 125.149 119C128.883 112.6 133.843 107.693 140.029 104.28C146.323 100.76 153.256 99 160.829 99C169.469 99 176.669 100.813 182.429 104.44C188.296 108.067 192.723 113.027 195.709 119.32C198.696 125.507 200.189 132.6 200.189 140.6C200.189 141.987 200.083 143.64 199.869 145.56C199.763 147.373 199.603 148.813 199.389 149.88H145.629C146.269 152.653 147.496 155 149.309 156.92C151.123 158.84 153.416 160.28 156.189 161.24C158.963 162.093 162.056 162.52 165.469 162.52H190.589V183H166.269ZM144.989 134.36H176.189C175.976 132.653 175.656 131 175.229 129.4C174.803 127.8 174.109 126.413 173.149 125.24C172.296 123.96 171.283 122.893 170.109 122.04C168.936 121.08 167.549 120.333 165.949 119.8C164.456 119.267 162.749 119 160.829 119C158.376 119 156.189 119.427 154.269 120.28C152.349 121.133 150.749 122.307 149.469 123.8C148.189 125.187 147.176 126.84 146.429 128.76C145.789 130.573 145.309 132.44 144.989 134.36ZM257.519 183C248.239 183 240.079 181.293 233.039 177.88C225.999 174.36 220.506 169.56 216.559 163.48C212.719 157.293 210.799 150.147 210.799 142.04C210.799 133.08 212.666 125.4 216.399 119C220.133 112.6 225.093 107.693 231.279 104.28C237.573 100.76 244.506 99 252.079 99C260.719 99 267.919 100.813 273.679 104.44C279.546 108.067 283.973 113.027 286.959 119.32C289.946 125.507 291.439 132.6 291.439 140.6C291.439 141.987 291.333 143.64 291.119 145.56C291.013 147.373 290.853 148.813 290.639 149.88H236.879C237.519 152.653 238.746 155 240.559 156.92C242.373 158.84 244.666 160.28 247.439 161.24C250.213 162.093 253.306 162.52 256.719 162.52H281.839V183H257.519ZM236.239 134.36H267.439C267.226 132.653 266.906 131 266.479 129.4C266.053 127.8 265.359 126.413 264.399 125.24C263.546 123.96 262.533 122.893 261.359 122.04C260.186 121.08 258.799 120.333 257.199 119.8C255.706 119.267 253.999 119 252.079 119C249.626 119 247.439 119.427 245.519 120.28C243.599 121.133 241.999 122.307 240.719 123.8C239.439 125.187 238.426 126.84 237.679 128.76C237.039 130.573 236.559 132.44 236.239 134.36ZM349.249 99C356.183 99 362.316 100.12 367.649 102.36C373.089 104.493 377.676 107.587 381.409 111.64C385.249 115.587 388.183 120.28 390.209 125.72C392.236 131.053 393.249 136.973 393.249 143.48C393.249 151.587 391.543 158.787 388.129 165.08C384.823 171.267 380.236 176.12 374.369 179.64C368.503 183.16 361.676 184.92 353.889 184.92C350.583 184.92 347.436 184.493 344.449 183.64C341.569 182.787 338.903 181.56 336.449 179.96C334.103 178.36 332.129 176.387 330.529 174.04H330.049V217.72H305.249V143.48C305.249 134.413 307.063 126.573 310.689 119.96C314.316 113.347 319.436 108.227 326.049 104.6C332.663 100.867 340.396 99 349.249 99ZM349.249 120.44C345.409 120.44 342.049 121.4 339.169 123.32C336.396 125.133 334.263 127.693 332.769 131C331.276 134.2 330.529 137.827 330.529 141.88C330.529 145.933 331.276 149.56 332.769 152.76C334.263 155.96 336.396 158.52 339.169 160.44C342.049 162.253 345.409 163.16 349.249 163.16C353.089 163.16 356.396 162.253 359.169 160.44C361.943 158.52 364.076 155.96 365.569 152.76C367.169 149.56 367.969 145.933 367.969 141.88C367.969 137.827 367.169 134.2 365.569 131C364.076 127.693 361.943 125.133 359.169 123.32C356.396 121.4 353.089 120.44 349.249 120.44Z" fill="url(#paint0_linear_979_64)"/>
<g filter="url(#filter0_d_979_64)">
<path d="M183.773 321V242.12C183.773 235.933 185.266 230.333 188.253 225.32C191.346 220.307 195.453 216.36 200.573 213.48C205.8 210.493 211.613 209 218.013 209H259.773V231.4H221.373C218.386 231.4 215.826 232.467 213.693 234.6C211.666 236.733 210.653 239.347 210.653 242.44V258.6H254.333V280.84H210.653V321H183.773ZM303.631 322.92C296.377 322.92 289.977 321.053 284.431 317.32C278.884 313.587 274.564 308.573 271.471 302.28C268.377 295.88 266.831 288.68 266.831 280.68C266.831 272.36 268.644 264.947 272.271 258.44C275.897 251.827 281.017 246.6 287.631 242.76C294.351 238.92 302.244 237 311.311 237C320.484 237 328.271 238.92 334.671 242.76C341.177 246.493 346.137 251.667 349.551 258.28C353.071 264.787 354.831 272.093 354.831 280.2V321H330.511V307.88H329.871C328.377 310.76 326.457 313.373 324.111 315.72C321.764 317.96 318.884 319.72 315.471 321C312.164 322.28 308.217 322.92 303.631 322.92ZM310.991 301.48C314.724 301.48 317.977 300.573 320.751 298.76C323.631 296.84 325.817 294.227 327.311 290.92C328.804 287.613 329.551 283.933 329.551 279.88C329.551 275.933 328.804 272.36 327.311 269.16C325.817 265.96 323.631 263.453 320.751 261.64C317.977 259.72 314.724 258.76 310.991 258.76C307.151 258.76 303.791 259.72 300.911 261.64C298.031 263.453 295.844 265.96 294.351 269.16C292.857 272.36 292.111 275.933 292.111 279.88C292.111 283.933 292.857 287.613 294.351 290.92C295.844 294.227 298.031 296.84 300.911 298.76C303.791 300.573 307.151 301.48 310.991 301.48ZM413.491 321C404.957 321 397.384 319.24 390.771 315.72C384.157 312.093 378.931 307.24 375.091 301.16C371.251 294.973 369.331 287.933 369.331 280.04C369.331 272.147 371.251 265.16 375.091 259.08C378.931 252.893 384.157 247.987 390.771 244.36C397.384 240.733 404.957 238.92 413.491 238.92H425.811V259.88H414.451C410.291 259.88 406.717 260.787 403.731 262.6C400.744 264.307 398.397 266.707 396.691 269.8C395.091 272.787 394.291 276.2 394.291 280.04C394.291 283.88 395.091 287.347 396.691 290.44C398.397 293.427 400.744 295.827 403.731 297.64C406.717 299.347 410.291 300.2 414.451 300.2H425.811V321H413.491ZM482.457 321C473.177 321 465.017 319.293 457.977 315.88C450.937 312.36 445.444 307.56 441.497 301.48C437.657 295.293 435.737 288.147 435.737 280.04C435.737 271.08 437.604 263.4 441.337 257C445.07 250.6 450.03 245.693 456.217 242.28C462.51 238.76 469.444 237 477.017 237C485.657 237 492.857 238.813 498.617 242.44C504.484 246.067 508.91 251.027 511.897 257.32C514.884 263.507 516.377 270.6 516.377 278.6C516.377 279.987 516.27 281.64 516.057 283.56C515.95 285.373 515.79 286.813 515.577 287.88H461.817C462.457 290.653 463.684 293 465.497 294.92C467.31 296.84 469.604 298.28 472.377 299.24C475.15 300.093 478.244 300.52 481.657 300.52H506.777V321H482.457ZM461.177 272.36H492.377C492.164 270.653 491.844 269 491.417 267.4C490.99 265.8 490.297 264.413 489.337 263.24C488.484 261.96 487.47 260.893 486.297 260.04C485.124 259.08 483.737 258.333 482.137 257.8C480.644 257.267 478.937 257 477.017 257C474.564 257 472.377 257.427 470.457 258.28C468.537 259.133 466.937 260.307 465.657 261.8C464.377 263.187 463.364 264.84 462.617 266.76C461.977 268.573 461.497 270.44 461.177 272.36Z" fill="url(#paint1_linear_979_64)"/>
</g>
<defs>
<filter id="filter0_d_979_64" x="162.573" y="200.8" width="375.004" height="156.32" filterUnits="userSpaceOnUse" color-interpolation-filters="sRGB">
<feFlood flood-opacity="0" result="BackgroundImageFix"/>
<feColorMatrix in="SourceAlpha" type="matrix" values="0 0 0 0 0 0 0 0 0 0 0 0 0 0 0 0 0 0 127 0" result="hardAlpha"/>
<feOffset dy="13"/>
<feGaussianBlur stdDeviation="10.6"/>
<feComposite in2="hardAlpha" operator="out"/>
<feColorMatrix type="matrix" values="0 0 0 0 0 0 0 0 0 0 0 0 0 0 0 0 0 0 0.25 0"/>
<feBlend mode="normal" in2="BackgroundImageFix" result="effect1_dropShadow_979_64"/>
<feBlend mode="normal" in="SourceGraphic" in2="effect1_dropShadow_979_64" result="shape"/>
</filter>
<linearGradient id="paint0_linear_979_64" x1="207.5" y1="-11" x2="45.5" y2="583.5" gradientUnits="userSpaceOnUse">
<stop stop-color="#2AA8D0"/>
<stop offset="1" stop-color="#3CDAB4"/>
</linearGradient>
<linearGradient id="paint1_linear_979_64" x1="393.5" y1="110.5" x2="462.5" y2="431" gradientUnits="userSpaceOnUse">
<stop stop-color="#00B4ED"/>
<stop offset="1" stop-color="#3CDAB4"/>
</linearGradient>
</defs>
</svg>
