<svg width="239" height="46" viewBox="0 0 239 46" fill="none" xmlns="http://www.w3.org/2000/svg">
<path d="M20.7 45.72C18.86 45.72 17.2 45.3 15.72 44.46C14.28 43.58 13.22 42.22 12.54 40.38L0 3H9.54L19.68 36.84C19.76 37.12 19.88 37.32 20.04 37.44C20.24 37.56 20.46 37.62 20.7 37.62C20.94 37.62 21.14 37.56 21.3 37.44C21.5 37.32 21.64 37.12 21.72 36.84L32.22 3H41.34L28.86 40.32C28.22 42.12 27.16 43.48 25.68 44.4C24.2 45.28 22.54 45.72 20.7 45.72ZM60.6872 45C57.2072 45 54.1672 44.34 51.5672 43.02C49.0072 41.66 47.0072 39.82 45.5672 37.5C44.1672 35.18 43.4672 32.58 43.4672 29.7C43.4672 26.46 44.1272 23.64 45.4472 21.24C46.7672 18.84 48.5672 16.98 50.8472 15.66C53.1272 14.34 55.7072 13.68 58.5872 13.68C62.0272 13.68 64.8072 14.4 66.9272 15.84C69.0872 17.28 70.6672 19.22 71.6672 21.66C72.6672 24.06 73.1672 26.74 73.1672 29.7C73.1672 30.1 73.1472 30.58 73.1072 31.14C73.0672 31.66 73.0072 32.06 72.9272 32.34H52.2272C52.5472 33.58 53.0872 34.62 53.8472 35.46C54.6472 36.3 55.6272 36.94 56.7872 37.38C57.9872 37.78 59.3272 37.98 60.8072 37.98H69.3272V45H60.6872ZM52.1672 26.82H64.9472C64.8672 26.06 64.7272 25.36 64.5272 24.72C64.3272 24.04 64.0472 23.44 63.6872 22.92C63.3272 22.4 62.9072 21.96 62.4272 21.6C61.9472 21.24 61.3872 20.96 60.7472 20.76C60.1072 20.56 59.4072 20.46 58.6472 20.46C57.6472 20.46 56.7472 20.64 55.9472 21C55.1872 21.36 54.5472 21.84 54.0272 22.44C53.5072 23.04 53.0872 23.72 52.7672 24.48C52.4872 25.24 52.2872 26.02 52.1672 26.82ZM78.6586 45V23.1C78.6586 20.38 79.4186 18.26 80.9386 16.74C82.4986 15.18 84.6386 14.4 87.3586 14.4H95.8186V21.42H88.7986C88.2786 21.42 87.8186 21.6 87.4186 21.96C87.0586 22.32 86.8786 22.78 86.8786 23.34V45H78.6586ZM100.345 45V14.4H108.625V45H100.345ZM104.485 10.74C103.085 10.74 101.865 10.24 100.825 9.24C99.8253 8.2 99.3253 6.98 99.3253 5.58C99.3253 4.18 99.8253 2.98 100.825 1.98C101.865 0.939999 103.085 0.419998 104.485 0.419998C105.885 0.419998 107.085 0.939999 108.085 1.98C109.125 2.98 109.645 4.18 109.645 5.58C109.645 6.98 109.125 8.2 108.085 9.24C107.085 10.24 105.885 10.74 104.485 10.74ZM115.921 45V15.24C115.921 12.96 116.461 10.9 117.541 9.06C118.661 7.22 120.141 5.76 121.981 4.68C123.861 3.56 125.921 3 128.161 3H143.341V10.56H129.121C127.841 10.56 126.741 11.02 125.821 11.94C124.941 12.86 124.501 13.96 124.501 15.24V22.02H141.301V29.58H124.501V45H115.921ZM160.218 45.72C157.418 45.72 154.978 45 152.898 43.56C150.818 42.12 149.198 40.2 148.038 37.8C146.918 35.36 146.358 32.68 146.358 29.76C146.358 26.76 146.998 24.04 148.278 21.6C149.598 19.16 151.478 17.24 153.918 15.84C156.358 14.4 159.278 13.68 162.678 13.68C166.118 13.68 169.018 14.4 171.378 15.84C173.738 17.28 175.538 19.22 176.778 21.66C178.018 24.1 178.638 26.8 178.638 29.76V45H170.418V39.9H170.298C169.698 40.98 168.938 41.96 168.018 42.84C167.138 43.72 166.058 44.42 164.778 44.94C163.498 45.46 161.978 45.72 160.218 45.72ZM162.558 38.7C164.158 38.7 165.538 38.3 166.698 37.5C167.858 36.7 168.738 35.62 169.338 34.26C169.978 32.86 170.298 31.32 170.298 29.64C170.298 27.96 169.978 26.46 169.338 25.14C168.738 23.78 167.858 22.7 166.698 21.9C165.538 21.1 164.158 20.7 162.558 20.7C160.918 20.7 159.498 21.1 158.298 21.9C157.138 22.7 156.238 23.78 155.598 25.14C154.998 26.46 154.698 27.96 154.698 29.64C154.698 31.32 154.998 32.86 155.598 34.26C156.238 35.62 157.138 36.7 158.298 37.5C159.498 38.3 160.918 38.7 162.558 38.7ZM201.12 45C197.96 45 195.14 44.32 192.66 42.96C190.18 41.6 188.22 39.78 186.78 37.5C185.34 35.18 184.62 32.58 184.62 29.7C184.62 26.82 185.34 24.24 186.78 21.96C188.22 19.64 190.18 17.8 192.66 16.44C195.14 15.08 197.96 14.4 201.12 14.4H204.96V21.42H201.12C199.44 21.42 197.98 21.78 196.74 22.5C195.54 23.22 194.6 24.22 193.92 25.5C193.28 26.74 192.96 28.14 192.96 29.7C192.96 31.26 193.28 32.68 193.92 33.96C194.6 35.2 195.54 36.18 196.74 36.9C197.98 37.62 199.44 37.98 201.12 37.98H204.96V45H201.12ZM226.097 45C222.617 45 219.577 44.34 216.977 43.02C214.417 41.66 212.417 39.82 210.977 37.5C209.577 35.18 208.877 32.58 208.877 29.7C208.877 26.46 209.537 23.64 210.857 21.24C212.177 18.84 213.977 16.98 216.257 15.66C218.537 14.34 221.117 13.68 223.997 13.68C227.437 13.68 230.217 14.4 232.337 15.84C234.497 17.28 236.077 19.22 237.077 21.66C238.077 24.06 238.577 26.74 238.577 29.7C238.577 30.1 238.557 30.58 238.517 31.14C238.477 31.66 238.417 32.06 238.337 32.34H217.637C217.957 33.58 218.497 34.62 219.257 35.46C220.057 36.3 221.037 36.94 222.197 37.38C223.397 37.78 224.737 37.98 226.217 37.98H234.737V45H226.097ZM217.577 26.82H230.357C230.277 26.06 230.137 25.36 229.937 24.72C229.737 24.04 229.457 23.44 229.097 22.92C228.737 22.4 228.317 21.96 227.837 21.6C227.357 21.24 226.797 20.96 226.157 20.76C225.517 20.56 224.817 20.46 224.057 20.46C223.057 20.46 222.157 20.64 221.357 21C220.597 21.36 219.957 21.84 219.437 22.44C218.917 23.04 218.497 23.72 218.177 24.48C217.897 25.24 217.697 26.02 217.577 26.82Z" fill="url(#paint0_linear_792_16)"/>
<defs>
<linearGradient id="paint0_linear_792_16" x1="249.441" y1="23.5798" x2="5.56861e-07" y2="23.5798" gradientUnits="userSpaceOnUse">
<stop stop-color="#3CDAB4"/>
<stop offset="1" stop-color="#2AA8D0"/>
</linearGradient>
</defs>
</svg>
