<svg width="503" height="315" viewBox="0 0 503 315" fill="none" xmlns="http://www.w3.org/2000/svg">
<g filter="url(#filter0_d_976_32)">
<rect x="78.5" y="44.5" width="218" height="148" rx="11.5" stroke="black" shape-rendering="crispEdges"/>
</g>
<rect x="104.5" y="89.5" width="177" height="15" stroke="black"/>
<rect x="104.5" y="60.5" width="76" height="15" stroke="black"/>
<rect x="104.5" y="118.5" width="177" height="15" stroke="black"/>
<rect x="104.5" y="147.5" width="177" height="15" stroke="black"/>
<g filter="url(#filter1_d_976_32)">
<path d="M311 175C311 163.954 319.954 155 331 155H480V247C480 258.046 471.046 267 460 267H331C319.954 267 311 258.046 311 247V175Z" fill="white"/>
<path d="M331 155.5H479.5V247C479.5 257.77 470.77 266.5 460 266.5H331C320.23 266.5 311.5 257.77 311.5 247V175C311.5 164.23 320.23 155.5 331 155.5Z" stroke="black"/>
</g>
<mask id="path-8-inside-1_976_32" fill="white">
<path d="M465 182.5C465 178.725 463.779 175.052 461.521 172.028C459.262 169.003 456.086 166.791 452.466 165.719C448.846 164.648 444.978 164.776 441.437 166.084C437.896 167.392 434.873 169.81 432.818 172.976C430.764 176.143 429.789 179.889 430.038 183.656C430.288 187.422 431.748 191.007 434.202 193.876C436.655 196.744 439.971 198.742 443.653 199.572C447.336 200.402 451.188 200.019 454.634 198.48L447.5 182.5H465Z"/>
</mask>
<path d="M465 182.5C465 178.725 463.779 175.052 461.521 172.028C459.262 169.003 456.086 166.791 452.466 165.719C448.846 164.648 444.978 164.776 441.437 166.084C437.896 167.392 434.873 169.81 432.818 172.976C430.764 176.143 429.789 179.889 430.038 183.656C430.288 187.422 431.748 191.007 434.202 193.876C436.655 196.744 439.971 198.742 443.653 199.572C447.336 200.402 451.188 200.019 454.634 198.48L447.5 182.5H465Z" stroke="black" stroke-width="2" mask="url(#path-8-inside-1_976_32)"/>
<rect x="326.5" y="182.5" width="80" height="62" rx="2.5" stroke="black"/>
<path d="M326.5 225.5C327.01 221.159 330.261 213.087 337.191 216.293C345.854 220.3 345.854 238.832 356.045 229.315C366.236 219.799 371.331 196.258 377.446 199.263C383.561 202.268 385.599 232.822 394.771 227.312C402.108 222.904 405.481 225.663 406.5 227.5" stroke="black"/>
<rect x="419.5" y="211.5" width="45" height="6" stroke="black"/>
<rect x="419.5" y="222.5" width="45" height="6" stroke="black"/>
<rect x="419.5" y="233.5" width="45" height="6" stroke="black"/>
<path d="M334.938 105.088H340.423V122.271H334.938V105.088ZM346.257 83.7295H351.743V122.271H346.257V83.7295ZM357.577 96.3503H363.062V122.271H357.577V96.3503Z" stroke="black" stroke-width="1.04167" stroke-linecap="round" stroke-linejoin="round"/>
<path d="M253.001 219.406C251.301 219.406 249.64 219.91 248.226 220.854C246.813 221.799 245.712 223.141 245.061 224.711C244.411 226.281 244.241 228.009 244.572 229.676C244.904 231.343 245.722 232.875 246.924 234.077C248.126 235.278 249.657 236.097 251.324 236.428C252.991 236.76 254.719 236.59 256.29 235.939C257.86 235.289 259.202 234.188 260.146 232.774C261.091 231.361 261.595 229.7 261.595 228C261.592 225.721 260.686 223.537 259.075 221.926C257.464 220.315 255.279 219.409 253.001 219.406ZM253.001 235.031C251.61 235.031 250.251 234.619 249.094 233.846C247.938 233.074 247.037 231.975 246.505 230.691C245.973 229.406 245.833 227.992 246.105 226.628C246.376 225.264 247.046 224.011 248.029 223.028C249.012 222.045 250.265 221.375 251.629 221.104C252.993 220.832 254.407 220.972 255.692 221.504C256.976 222.036 258.075 222.937 258.847 224.094C259.62 225.25 260.032 226.609 260.032 228C260.032 229.865 259.291 231.653 257.973 232.972C256.654 234.29 254.866 235.031 253.001 235.031ZM273.704 224.094C273.681 223.983 273.634 223.878 273.567 223.787C273.499 223.696 273.413 223.621 273.313 223.566L267.28 220.129C267.219 220.022 267.154 219.917 267.085 219.812L267.083 213C267.082 212.888 267.057 212.777 267.009 212.676C266.961 212.575 266.892 212.486 266.806 212.414C264.768 210.689 262.421 209.367 259.89 208.519C259.786 208.484 259.677 208.471 259.568 208.481C259.459 208.491 259.354 208.523 259.259 208.576L253.196 211.959H252.806L246.751 208.568C246.656 208.515 246.55 208.482 246.442 208.472C246.333 208.462 246.223 208.475 246.12 208.51C243.589 209.362 241.244 210.688 239.208 212.416C239.123 212.488 239.054 212.578 239.007 212.679C238.959 212.78 238.934 212.89 238.932 213.002L238.901 219.818L238.706 220.135L232.669 223.566C232.573 223.623 232.49 223.699 232.426 223.79C232.362 223.881 232.318 223.984 232.298 224.094C231.786 226.673 231.786 229.327 232.298 231.906C232.32 232.016 232.365 232.12 232.431 232.211C232.496 232.302 232.581 232.378 232.679 232.433L238.712 235.871C238.773 235.979 238.838 236.084 238.907 236.187L238.931 242.998C238.931 243.11 238.957 243.22 239.004 243.322C239.052 243.423 239.122 243.512 239.208 243.584C241.245 245.309 243.592 246.63 246.124 247.478C246.227 247.513 246.337 247.527 246.445 247.517C246.554 247.507 246.659 247.475 246.755 247.422L252.806 244.041H253.196L259.251 247.431C259.346 247.485 259.451 247.518 259.56 247.528C259.669 247.538 259.778 247.525 259.882 247.49C262.412 246.637 264.758 245.312 266.794 243.584C266.879 243.512 266.948 243.422 266.995 243.321C267.043 243.22 267.068 243.11 267.069 242.998L267.1 236.181L267.296 235.865L273.333 232.433C273.433 232.379 273.519 232.303 273.587 232.212C273.654 232.121 273.701 232.015 273.723 231.904C274.228 229.324 274.222 226.671 273.704 224.094ZM272.243 231.256L266.341 234.609C266.217 234.68 266.115 234.783 266.046 234.908C265.927 235.121 265.802 235.332 265.673 235.541C265.595 235.663 265.553 235.806 265.554 235.951L265.522 242.621C263.791 244.038 261.829 245.145 259.722 245.896L253.784 242.576C253.665 242.51 253.53 242.475 253.393 242.476H252.641C252.502 242.474 252.364 242.508 252.241 242.576L246.294 245.896C244.183 245.148 242.216 244.043 240.479 242.629L240.456 235.965C240.456 235.819 240.415 235.676 240.337 235.553C240.208 235.357 240.083 235.135 239.964 234.922C239.895 234.797 239.793 234.694 239.669 234.623L233.761 231.258C233.376 229.104 233.376 226.899 233.761 224.746L239.661 221.39C239.785 221.32 239.887 221.216 239.956 221.092C240.075 220.879 240.2 220.668 240.329 220.461C240.406 220.337 240.448 220.194 240.448 220.049L240.479 213.379C242.211 211.962 244.173 210.854 246.28 210.103L252.218 213.424C252.34 213.491 252.478 213.526 252.618 213.523H253.368C253.508 213.527 253.646 213.492 253.768 213.424L259.716 210.103C261.824 210.853 263.788 211.958 265.522 213.371L265.546 220.035C265.546 220.181 265.587 220.324 265.665 220.447C265.794 220.642 265.919 220.865 266.038 221.078C266.107 221.203 266.209 221.306 266.333 221.377L272.241 224.742C272.628 226.895 272.63 229.1 272.247 231.254L272.243 231.256Z" fill="black"/>
<defs>
<filter id="filter0_d_976_32" x="0.599998" y="0.599998" width="353.8" height="283.8" filterUnits="userSpaceOnUse" color-interpolation-filters="sRGB">
<feFlood flood-opacity="0" result="BackgroundImageFix"/>
<feColorMatrix in="SourceAlpha" type="matrix" values="0 0 0 0 0 0 0 0 0 0 0 0 0 0 0 0 0 0 127 0" result="hardAlpha"/>
<feMorphology radius="9" operator="dilate" in="SourceAlpha" result="effect1_dropShadow_976_32"/>
<feOffset dx="-10" dy="24"/>
<feGaussianBlur stdDeviation="29.2"/>
<feComposite in2="hardAlpha" operator="out"/>
<feColorMatrix type="matrix" values="0 0 0 0 0 0 0 0 0 0.705882 0 0 0 0 0.929412 0 0 0 0.25 0"/>
<feBlend mode="normal" in2="BackgroundImageFix" result="effect1_dropShadow_976_32"/>
<feBlend mode="normal" in="SourceGraphic" in2="effect1_dropShadow_976_32" result="shape"/>
</filter>
<filter id="filter1_d_976_32" x="264.1" y="133.1" width="238.8" height="181.8" filterUnits="userSpaceOnUse" color-interpolation-filters="sRGB">
<feFlood flood-opacity="0" result="BackgroundImageFix"/>
<feColorMatrix in="SourceAlpha" type="matrix" values="0 0 0 0 0 0 0 0 0 0 0 0 0 0 0 0 0 0 127 0" result="hardAlpha"/>
<feOffset dx="-12" dy="13"/>
<feGaussianBlur stdDeviation="17.45"/>
<feComposite in2="hardAlpha" operator="out"/>
<feColorMatrix type="matrix" values="0 0 0 0 0.235294 0 0 0 0 0.854902 0 0 0 0 0.705882 0 0 0 0.25 0"/>
<feBlend mode="normal" in2="BackgroundImageFix" result="effect1_dropShadow_976_32"/>
<feBlend mode="normal" in="SourceGraphic" in2="effect1_dropShadow_976_32" result="shape"/>
</filter>
</defs>
</svg>
