<svg width="1440" height="613" viewBox="0 0 1440 613" fill="none" xmlns="http://www.w3.org/2000/svg">
<path d="M351.615 357.615L439.397 343.998M351.615 357.615L393.631 369.076M351.615 357.615L339.116 392.943M351.615 357.615L328.322 350.955M439.397 343.998L393.631 369.076M439.397 343.998L460.559 292.772M439.397 343.998L494.557 373.968M439.397 343.998L515.474 332.197M393.631 369.076L415.823 473.507M339.116 392.943L366.01 450.413L388.408 462.349M339.116 392.943L350.788 468.185M339.116 392.943L328.322 350.955M339.116 392.943L327.412 394.759M388.408 462.349L350.788 468.185M388.408 462.349L415.823 473.507M350.788 468.185L318.947 467.131M350.788 468.185L313.498 481.674M350.788 468.185L361.482 481.936L320.2 491.764M328.322 350.955L413.453 325.763M328.322 350.955L311.602 353.548M413.453 325.763L460.559 292.772M413.453 325.763L389.514 265.267M413.453 325.763L331.396 287.98M460.559 292.772L515.474 332.197M460.559 292.772L389.514 265.267M494.557 373.968L515.474 332.197M494.557 373.968L501.591 391.712M415.823 473.507L491.225 435.27M415.823 473.507L390.467 514.254M491.225 435.27L501.591 391.712M491.225 435.27L493.237 445.179M501.591 391.712L530.443 447.251M318.947 467.131L313.498 481.674M318.947 467.131L327.412 394.759M313.498 481.674L320.2 491.764M327.412 394.759L311.602 353.548M311.602 353.548L314.314 310.321L331.396 287.98M331.396 287.98L389.514 265.267M320.2 491.764L318.167 511.771M318.167 511.771L336.631 514.9M318.167 511.771L329.093 504.939L377.582 497.418L390.467 514.254M336.631 514.9L375.088 508.934L390.467 514.254M336.631 514.9L326.165 530.221L328.111 542.761L339.433 544.002M390.467 514.254L382.38 528.35M390.467 514.254L493.237 445.179M382.38 528.35L473.596 487.089M382.38 528.35L363.008 538.697M382.38 528.35L391.854 547.318M493.237 445.179L498.07 449.32M473.596 487.089L498.07 449.32M473.596 487.089L391.854 547.318M473.596 487.089L493.428 519.336M498.07 449.32L527.2 479.297M569.936 523.275L513.261 551.583M569.936 523.275L530.443 447.251M569.936 523.275L527.2 479.297M417.8 599.263L391.123 602.307L377.066 570.502M417.8 599.263L391.854 547.318M417.8 599.263L513.261 551.583M363.008 538.697L350.755 545.242L339.433 544.002M363.008 538.697L377.066 570.502M339.433 544.002L335.766 560.082L343.851 578.375L360.537 583.026L377.066 570.502M377.066 570.502L391.854 547.318M513.261 551.583L493.428 519.336M530.443 447.251L527.2 479.297M527.2 479.297L493.428 519.336" stroke="#3CDAB4"/>
<path d="M1031.92 337.667L966.545 336.833M1031.92 337.667L1002.49 350.367M1031.92 337.667L1044.68 362.114M1031.92 337.667L1048.2 330.402M966.545 336.833L1002.49 350.367M966.545 336.833L945.822 301.699M966.545 336.833L929.455 364.38M966.545 336.833L909.89 336.11M1002.49 350.367L997.129 428.756M1044.68 362.114L1031.03 406.772L1015.95 417.788M1044.68 362.114L1043.97 418.146M1044.68 362.114L1048.2 330.402M1044.68 362.114L1053.4 362.225M1015.95 417.788L1043.97 418.146M1015.95 417.788L997.129 428.756M1043.97 418.146L1067.06 414.081M1043.97 418.146L1072.53 424.114M1043.97 418.146L1037.6 429.273L1068.69 432.16M1048.2 330.402L983.561 320.86M1048.2 330.402L1060.65 330.561M983.561 320.86L945.822 301.699M983.561 320.86L994.74 274.302M983.561 320.86L1039.44 284.835M945.822 301.699L909.89 336.11M945.822 301.699L994.74 274.302M929.455 364.38L909.89 336.11M929.455 364.38L926.168 378.037M997.129 428.756L938.23 408.702M997.129 428.756L1019.82 455.821M938.23 408.702L926.168 378.037M938.23 408.702L937.79 416.13M926.168 378.037L910.895 421.492M1067.06 414.081L1072.53 424.114M1067.06 414.081L1053.4 362.225M1072.53 424.114L1068.69 432.16M1053.4 362.225L1060.65 330.561M1060.65 330.561L1054.2 299.345L1039.44 284.835M1039.44 284.835L994.74 274.302M1068.69 432.16L1072.25 446.527M1072.25 446.527L1059.12 450.718M1072.25 446.527L1063.58 442.68L1027.47 442.22L1019.82 455.821M1059.12 450.718L1030.48 450.353L1019.82 455.821M1059.12 450.718L1068.33 460.798L1068.21 470.137L1060.09 472.213M1019.82 455.821L1027.17 465.255M1019.82 455.821L937.79 416.13M1027.17 465.255L956.44 444.634M1027.17 465.255L1042.36 470.788M1027.17 465.255L1022.24 480.056M937.79 416.13L934.698 419.648M956.44 444.634L934.698 419.648M956.44 444.634L1022.24 480.056M956.44 444.634L945.328 470.183M934.698 419.648L916.575 444.506M889.99 480.974L934.216 495.733M889.99 480.974L910.895 421.492M889.99 480.974L916.575 444.506M1008.71 520.591L1028.46 520.048L1035.41 495.418M1008.71 520.591L1022.24 480.056M1008.71 520.591L934.216 495.733M1042.36 470.788L1051.97 474.289L1060.09 472.213M1042.36 470.788L1035.41 495.418M1060.09 472.213L1064.42 483.55L1060.43 497.716L1048.75 502.832L1035.41 495.418M1035.41 495.418L1022.24 480.056M934.216 495.733L945.328 470.183M910.895 421.492L916.575 444.506M916.575 444.506L945.328 470.183" stroke="#3CDAB4"/>
<path d="M935.504 104L1004.5 115.5M935.504 104L1004.5 47.0121M935.504 104L973.004 26L1004.5 47.0121M1004.5 115.5V65.5V47.0121M1004.5 115.5L1019.5 132L1059 47.0121M1004.5 47.0121L1059 2V47.0121M1004.5 47.0121L1085.5 88L1059 47.0121" stroke="#3CDAB4"/>
<path d="M468.96 214.271L477.775 260.171L509.265 223.203M468.96 214.271L509.265 223.203M468.96 214.271L493.336 196.022M509.265 223.203L493.336 196.022M509.265 223.203L524.018 209.47M509.265 223.203L530.788 232.637L524.018 209.47M493.336 196.022L524.018 209.47" stroke="#3CDAB4"/>
</svg>
